<?xml version="1.0" encoding="UTF-8"?><svg id="Layer_2" xmlns="http://www.w3.org/2000/svg" viewBox="0 0 50 55.24"><g id="Noir"><g><path d="M23.01,40.1c.07-.09,.17-.1,.28-.09,.49,.05,.97,.05,1.46,0,.23-.03,.45-.06,.67-.11,.21-.04,.4-.13,.58-.32-.15-.03-.26-.06-.41-.1,.05-.03,.08-.04,.11-.05,.74-.23,1.49-.44,2.19-.79,.4-.2,.77-.46,1.14-.7,.71-.46,1.46-.86,2.25-1.18,.57-.24,1.16-.45,1.75-.64,.84-.28,1.7-.4,2.62-.37-.23,.14-.49,.08-.69,.25,.14,.09,.29,.09,.44,.1,.46,.02,.91,.03,1.37,.05,1.83,.09,3.52,.64,5.1,1.53,.12,.07,.23,.14,.35,.2,.31,.17,.56,.41,.83,.63,.21,.17,.43,.31,.65,.47,.07,.05,.12,.14,.19,.21,.07,.09,.14,.17,.21,.26,.26,.23,.45,.5,.56,.83,.09,.27,.23,.52,.43,.72,.11,.12,.07,.46-.05,.56-.03,.02-.07,.04-.11,.04-.14-.03-.27-.06-.38-.17-.31-.34-.62-.66-.93-1-.09-.1-.16-.21-.24-.32-.29-.35-.6-.69-.97-.96-1.03-.73-2.15-1.31-3.36-1.69-.54-.17-1.1-.25-1.67-.28-.99-.05-1.94,.12-2.88,.41-.98,.31-1.88,.78-2.77,1.29-.3,.17-.61,.32-.92,.47-.96,.46-1.92,.91-2.88,1.37-.64,.31-1.31,.44-2.01,.47-.51,.02-1.02,.05-1.53,.03-.8-.04-1.6-.16-2.37-.37-1.64-.44-3.12-1.2-4.45-2.26-1.4-1.11-2.56-2.44-3.57-3.9-.22-.32-.43-.64-.64-.96-.23-.36-.26-.77-.25-1.18,0-.03,.03-.08,.06-.08,.03,0,.08,.01,.1,.04,.06,.07,.11,.16,.16,.24,.3,.49,.59,.99,.89,1.48,.05,.09,.12,.16,.19,.24h0c.03,.09,.06,.19,.2,.19v.02c.02,.12,.08,.2,.19,.23,0,0,.01,.02,.02,.03,.02,.05,.05,.1,.07,.14,.03,.04,.06,.08,.09,.13,.05,.07,.11,.14,.16,.21l.1,.09s.02,.03,.03,.05c.03,.12,.12,.18,.22,.23,.14,.13,.28,.26,.42,.4,.21,.22,.4,.46,.63,.66,.4,.35,.83,.67,1.24,1.01,.05,.04,.11,.08,.17,.12,.1,.06,.19,.13,.3,.18,.2,.1,.42,.17,.62,.27,.51,.26,1.03,.51,1.59,.67,.2,.06,.42,.08,.63,.1,.11,.01,.2-.02,.24-.15,.03-.13-.03-.19-.13-.25-.17-.1-.34-.21-.5-.34,.34,.13,.68,.26,1.03,.39,.1,.04,.19,.08,.29,.1,.36,.06,.62,.31,.94,.44,.14,.06,.13,.2,0,.26-.09,.04-.2,.07-.3,.06-.3-.02-.6-.03-.89-.09-.29-.05-.58-.15-.87-.22-.07-.02-.15-.04-.23-.04,.71,.4,1.49,.59,2.28,.76,.07,.01,.14,.03,.21,.04-.07-.07-.14-.11-.21-.03Zm13.48-3.71c-.21-.07-.32-.06-.44,0h.44Zm.67-.05s0,.04,0,.05c.07,0,.14-.01,.21-.02,0-.01,0-.02,0-.03h-.21Zm-7.14,2.27s0,.01,.01,.02c.04-.02,.07-.04,.11-.06,0,0,0-.01-.01-.02-.04,.02-.07,.04-.11,.06Zm-6.54,1.57s.02-.03,.03-.04c-.05-.01-.09-.02-.14-.03v.02s.07,.03,.11,.05Z"/><path d="M22.87,15.38s-.06,.02-.09,.02c-.32,.02-.36-.01-.32-.34h-.27c.05-.19,.15-.36,.28-.43,.75-.4,1.55-.65,2.41-.67,.26,0,.53,.04,.79,.07,0,.02,0,.04,0,.05-.04,.01-.07,.03-.11,.04-.16,.03-.33,.04-.49,.07-.15,.03-.18,.12-.11,.24,.04,.07,.11,.14,.18,.18,.23,.13,.48,.24,.72,.35,.09,.04,.19,.07,.27,.14-.06,0-.13,.01-.19,.02,0,0,0,.01,0,.02,.23,.04,.46,.09,.69,.13,.6,.11,1.11,.41,1.62,.73,.03,.02,.04,.08,.07,.12,.11,.06,.21,.12,.32,.18h.01s0,.02,0,.02c.04,.02,.09,.05,.13,.07,.05,.04,.1,.07,.15,.11,.04,.04,.07,.09,.11,.12,.36,.23,.73,.45,1.09,.67,.17,.22,.71,.54,.92,.52-.11-.08-.19-.15-.28-.21,.09,.04,.18,.08,.28,.13,.44,.22,.88,.46,1.33,.66,.28,.12,.58,.2,.87,.28,.1,.03,.22,.03,.32,0,.14-.02,.17-.08,.13-.22-.05-.18-.17-.31-.33-.41-.28-.18-.56-.35-.83-.54-.08-.05-.14-.12-.21-.18,.59,.3,1.18,.59,1.77,.89,.3,.15,.6,.31,.9,.46,.1,.05,.18,.12,.17,.25-.01,.12-.08,.2-.24,.21-.19,.02-.39,.01-.59,0-.2-.02-.4-.07-.61-.08,1.01,.44,2.07,.57,3.16,.57-.31-.08-.64,0-.94-.14,.33-.06,.66-.11,.98-.17,.17-.04,.33-.09,.49-.16,.07-.03,.12-.1,.18-.15,0-.02-.01-.04-.02-.05-.15-.03-.31-.05-.46-.08,0-.01,0-.02,0-.03,.05-.02,.09-.04,.14-.05,.4-.1,.79-.2,1.19-.31,.81-.22,1.55-.6,2.25-1.05,.72-.46,1.38-1.02,2.01-1.6,.13-.12,.24-.24,.42-.29,.1-.03,.18-.12,.27-.19,.06-.04,.13-.09,.2-.12-.03,.12-.11,.2-.18,.28-.44,.51-.93,.96-1.45,1.39-.21,.17-.41,.36-.6,.56,.39-.08,.73-.29,1.04-.52,.67-.51,1.34-1.02,1.99-1.55,.21-.17,.36-.39,.55-.58,.2-.22,.41-.44,.62-.65,.08-.08,.17-.14,.26-.2,.06-.03,.14-.03,.21-.04,.05,.13-.03,.19-.07,.26-.36,.54-.81,1-1.28,1.45-.19,.18-.39,.36-.59,.54,.01,.04,.02,.08,.03,.12-.15-.06-.18-.04-.31,.2,.12-.08,.22-.14,.31-.2,.15-.15,.31-.26,.49-.37,.44-.26,.87-.53,1.29-.83,.22-.15,.4-.35,.59-.54,.09-.09,.14-.21,.08-.35-.01-.03-.01-.06-.02-.09-.03-.39,.06-.47,.45-.41,.31,.05,.6,0,.87-.21,.22-.16,.47-.29,.73-.38,.2-.07,.39,.02,.55,.15-.21,.06-.42,.12-.62,.19-.38,.12-.77,.24-1.15,.35-.1,.03-.19,.06-.25,.16-.12,.18-.24,.35-.37,.52-.02,.03-.04,.06-.07,.13,.56-.01,1.08,.03,1.55,.32-.19,.26-.28,.29-.55,.17-.65-.29-1.38-.17-1.87,.34-.19,.2-.36,.42-.52,.64-.32,.46-.67,.89-1.07,1.28-.23,.22-.46,.45-.69,.68-.3,.31-.63,.57-1.01,.77-.32,.17-.65,.32-.97,.48-.04,.02-.1,.03-.2,.06,.47-.39,.91-.72,1.32-1.08,.67-.58,1.36-1.14,1.94-1.83,.14-.16,.26-.34,.39-.51,.03-.03,.04-.08,.06-.12-.01-.01-.02-.02-.03-.04-.24,.15-.48,.31-.72,.46,0,.01,0,.02,0,.03,.03,0,.06,0,.13-.01-.06,.08-.1,.14-.15,.19-.33,.31-.64,.62-.98,.92-1,.87-2.06,1.66-3.21,2.32-.68,.39-1.4,.63-2.17,.74-.38,.05-.76,.11-1.15,.12-1.38,.06-2.73-.1-4.03-.58-1.24-.45-2.36-1.11-3.44-1.86-.53-.37-1.04-.76-1.56-1.15-.56-.42-1.18-.64-1.87-.7-.79-.07-1.57,0-2.35,.08-.84,.08-1.67,.18-2.51,.26-.34,.03-.68,.03-1.06,.05,.11-.21,.25-.29,.44-.32,.11-.02,.23-.06,.33-.1,.32-.12,.63-.25,.94-.37,.08-.03,.14-.09,.21-.13,0,0,0,0,0,0,.04-.02,.08-.04,.12-.05-.35-.08-.7,.13-1.07,.01,.07-.12,.16-.19,.27-.15,.15,.05,.29,.03,.44,.02,.34-.02,.68-.05,1.02-.09,.07,0,.19,.03,.18-.12,.06,.03,.13,.1,.2-.01-.07,0-.13,.01-.2,.02Zm20.21,1.6c.16,0,.3-.08,.37-.24-.12,.08-.24,.16-.36,.24-.04,.05-.08,.1-.12,.15,.06-.03,.18-.02,.12-.15Zm-18.05-1.89s0,.02,0,.03h.4s0-.02,0-.03h-.4Zm18.51,1.55s.03,.03,.04,.04c.04-.04,.09-.07,.13-.11-.01-.01-.02-.02-.03-.04-.05,.03-.09,.07-.14,.1Zm-21.3-.97s0-.02,.01-.03c-.04-.02-.08-.03-.12-.05,0,0,0,.02-.01,.03,.04,.02,.08,.04,.11,.06Z"/><path d="M19.82,52.31s.07-.01,.09,0c.21,.1,.41,.2,.61,.3,.03,.01,.06,0,.09,.01,0,.03,0,.08,.02,.09,.06,.04,.12,.06,.18,.08,.08,.02,.15,.04,.23,.06,.07,.02,.14,.04,.21,.06,.02,0,.04-.01,.07-.02-.04,.04-.04,.08,.01,.1,.06,.02,.13,.04,.19,.05h0s.06,.04,.09,.05c1.6,.64,3.27,.93,5,.88,.03,0,.06,0,.09-.05-.16,0-.31-.02-.47-.02-.16,0-.33,.02-.51,.03,.05-.02,.08-.03,.13-.06-.16-.04-.29-.03-.42,0h0c-.16-.12-.36-.08-.54-.11-.96-.15-1.89-.39-2.8-.73-.09-.03-.18-.08-.26-.14,.67,.06,1.32,.3,2,.21,.04,0,.08-.04,.13-.07-.06-.18-.22-.27-.35-.38-.28-.23-.61-.38-.95-.5-1.29-.47-2.54-1.02-3.76-1.65-.03-.02-.06-.04-.08-.08,.23,.1,.46,.21,.7,.31,.82,.34,1.64,.69,2.47,1,.8,.3,1.63,.53,2.47,.69,1.05,.2,2.1,.29,3.17,.2,.61-.05,1.22-.14,1.81-.28,1.31-.31,2.53-.84,3.71-1.47,.29-.15,.6-.27,.89-.42,.43-.22,.85-.45,1.26-.69,.25-.14,.5-.3,.76-.44-.13,.16-.31,.26-.44,.43,.04-.02,.09-.02,.13-.05,.82-.5,1.65-.99,2.45-1.52,1.09-.71,2.13-1.49,3.11-2.34,.17-.15,.34-.3,.5-.46,.12-.12,.21-.26,.35-.43-.15,0-.22,.06-.29,.11-.53,.39-1.06,.79-1.59,1.18-.57,.42-1.13,.85-1.71,1.26,.03-.09,.11-.14,.17-.19,.41-.35,.83-.7,1.24-1.06,.18-.16,.29-.37,.48-.52,.81-.66,1.61-1.33,2.41-2,.08-.07,.16-.11,.27-.12,.1,0,.2-.08,.36-.14-.21,.34-.51,.56-.69,.9,.15-.02,.26-.04,.37-.09,.48-.21,.9-.51,1.22-.93,.24-.3,.56-.47,.92-.58,.04-.01,.07-.03,.11-.03,.1-.02,.21-.02,.27,.09,.05,.1,.03,.21-.05,.28-.14,.13-.29,.24-.43,.36-.07,.06-.13,.13-.19,.2-.03,.01-.06,.03-.1,.04-.24,.12-.47,.25-.63,.47-.06,.03-.13,.07-.19,.1-.04,.04-.08,.07-.11,.11-.08,.04-.16,.07-.24,.11-.12,.1-.23,.21-.35,.31-.05,.03-.11,.05-.16,.08,0,.01,.02,.03,.03,.04,.04-.04,.09-.08,.13-.13,.11-.07,.23-.14,.34-.21,.02-.01,0-.06,0-.1l.18,.05s.09,.03,.16,.05c-.12,.15-.22,.29-.35,.4-.31,.29-.62,.58-.96,.84-1.56,1.2-3.11,2.41-4.69,3.58-.57,.43-1.2,.78-1.82,1.14-1.76,1.02-3.53,2.02-5.3,3.03-.45,.26-.93,.46-1.43,.6-.98,.26-1.97,.5-2.99,.55-.23,.01-.45,.02-.67-.05-.17-.05-.38,0-.56-.04-.42-.1-.84-.19-1.25-.34-.55-.21-1.09-.46-1.63-.7-.76-.33-1.51-.67-2.26-1.01-.12-.05-.23-.12-.35-.19,0-.03,0-.05,0-.08Zm6.37,2.29c.35-.15,.64-.4,1.01-.61-.48,.02-.74,.33-1.01,.61Z"/><path d="M1.19,15.47c.02-.06,.05-.11,.06-.17,.07-.46,.13-.92,.2-1.38,.04-.27,.2-.49,.34-.71,.02,0,.04,0,.05,0,0,.11,.02,.23,.02,.34,0,1.54,.01,3.09,.02,4.63,.01,1.64,.03,3.27,.04,4.91,0,1.91,0,3.83-.01,5.74,0,.86-.03,1.71-.05,2.57-.01,.47-.03,.94-.05,1.41-.02,.47-.06,.94-.07,1.41-.02,1.41,.08,2.81,.52,4.17,.11,.33,.15,.68,.26,1,.16,.48,.36,.96,.54,1.44,.02,.05,.04,.1,.03,.17-.04-.04-.09-.07-.12-.11-.53-.62-.99-1.29-1.39-1.99-.16-.28-.26-.6-.37-.87,.06,.6,.33,1.17,.65,1.72-.02,0-.03,.02-.05,.03-.1-.14-.21-.28-.31-.42-.08-.1-.15-.2-.24-.29-.05-.06-.12-.09-.19-.02-.06,.06-.11,.14-.05,.23,0,.01,.02,.03,.03,.04,.49,.53,.83,1.16,1.19,1.78,0,0,0,.01,.01,.02,.39,.81,.96,1.49,1.62,2.1,.18,.16,.35,.33,.5,.53-.07-.06-.15-.12-.22-.18-.97-.84-1.8-1.8-2.58-2.82-.22-.29-.46-.58-.69-.87-.21-.27-.42-.54-.5-.88-.05-.19-.07-.39-.09-.58-.02-.18-.04-.37-.08-.55-.07,.44-.08,.87,.1,1.32-.14-.17-.24-.39-.25-.64-.02-.44-.05-.88-.04-1.32,0-.25,.08-.51,.17-.76,.03,.19,.06,.37,.1,.56,.02,.07,.04,.16,.09,.21,.05,.05,.14,.08,.21,.07,.05,0,.11-.09,.12-.15,.02-.23,.04-.47,.03-.71,0-.53-.02-1.07-.03-1.6,0-.78,0-1.56,0-2.34,.01-2.24,.04-4.47,.04-6.71,0-1.86-.01-3.72-.03-5.57,0-.53-.07-1.07-.11-1.6-.01-.19-.1-.34-.29-.45-.15,.41-.1,.85-.2,1.3-.02-.35-.04-.66-.07-.98-.02-.22-.08-.44-.06-.65,.03-.52,.09-1.03,.15-1.55,.03-.22,.08-.45,.15-.66-.02,.41-.04,.82-.06,1.23,.02,0,.04,0,.06,0,.04-.2,.08-.39,.13-.59,.05-.18,.05-.39,.18-.57,.12,.26,.14,.51,.15,.76,.05,1.55,.08,3.1,.12,4.65,0,.35,0,.71,0,1.06h.05c0-.52,0-1.05,0-1.57,0-.59,0-1.18,0-1.77,0-.25-.04-.5-.05-.75,0-.19-.05-.39,.07-.57,.04-.06,.02-.17,.06-.25v.29c.03-.18,.08-.36,0-.53,0-.02-.02-.05-.01-.07,.03-.45-.06-.9-.02-1.36,.03-.37,.06-.75,.08-1.13,.03-.43,.04-.86,.07-1.29,.01-.2,.06-.4,.03-.59-.06-.4,.05-.8,.02-1.2,0-.04,0-.08,0-.12,.04-.23,.29-.7,.49-.9,.04,.14,.03,.27,0,.39-.08,.36-.14,.72-.17,1.09-.03,.38-.12,.76-.17,1.14-.04,.33-.07,.65-.1,.98,0,.02,.02,.04,.04,.09,.16-.93,.25-1.85,.52-2.75,.08,.12,.07,.23,.05,.33-.11,.47-.24,.94-.32,1.42-.12,.69-.21,1.38-.31,2.08-.02,.11-.02,.22-.02,.33-.02,.15-.03,.31-.05,.46,0,.14-.02,.27-.03,.41,0,0,.02,0,.03,0v-.41c.1-.15,.06-.31,.05-.46Zm-.23,8.32s0,0-.01,0v6.5s0,0,.01,0v-6.51Zm-.01,12.85c-.07,.38-.01,1.05,.13,1.52,.03-.11,.06-.17,.05-.24,0-.11-.04-.21,.02-.32,.02-.03,0-.09,0-.14-.03-.26-.06-.51-.09-.77-.02-.18-.04-.37-.06-.55,0,0-.02,0-.03,0,.02,.21,.03,.41,.05,.62,0,0-.01,0-.02,0-.01-.03-.03-.06-.06-.14Zm-.04-2.08s.01,0,.02,0c-.03,.25-.06,.51-.09,.76-.02,.19-.03,.38,.03,.59q.12-.12,.08-.37s-.01,.06-.02,.09c0,0,0,0-.01,0v-1.06Zm0-2.71s-.01,0-.02,0v1.66s.01,0,.02,0v-1.66Zm.08-13.79s0,0-.01,0v1.06s0,0,.01,0v-1.06Zm.21,20.53q.03-.17-.11-.27c.05,.12,.08,.2,.11,.27Zm-.34-1.99s.01,0,.02,0l-.02-.34h0v.34Zm.4-22.4s-.02,0-.04,0c-.01,.09-.03,.19-.04,.28,.02,0,.03,0,.05,0,.01-.09,.02-.19,.03-.28Zm-.18,2.68h.02v-.25h-.02v.25Z"/><path d="M23.03,1.39s.09-.02,.14-.04c-.04-.03-.07-.06-.11-.09,.24-.01,.46-.03,.73-.05-.12-.1-.23-.07-.32-.07-.16,0-.31,0-.43-.15-.03-.03-.1-.04-.15-.05-.05,0-.11,0-.18,0,.07-.18,.14-.32,.33-.41C23.94,.1,24.87-.05,25.85,.01c.55,.03,1.23,.17,1.65,.36-.05,0-.1,0-.16-.01-.45-.08-.9-.14-1.36-.12-.07,0-.14,0-.21,.01-.13,0-.24,.04-.27,.18-.03,.13,.05,.23,.16,.29,.13,.08,.26,.15,.4,.2,.32,.12,.64,.22,1.01,.34-.12,.02-.18,.03-.24,.04,1.19,.28,2.34,.7,3.49,1.13-.06-.03-.11-.07-.17-.1-.53-.26-1.06-.52-1.59-.79-.13-.06-.25-.14-.35-.23-.14-.13-.11-.24,.08-.28,.32-.08,.65-.05,.95,.06,.45,.16,.89,.32,1.32,.51,1.34,.58,2.61,1.29,3.87,2.02,2.33,1.38,4.59,2.87,6.86,4.35,.9,.58,1.8,1.16,2.69,1.76,.35,.23,.66,.51,.99,.76,.16,.12,.23,.28,.24,.49,0,.23,.06,.46,.09,.7,0,0,0,0,0,0-.07-.04-.14-.08-.21-.12-.07-.05-.14-.1-.21-.15-.15-.12-.3-.24-.45-.37,.2-.14,.21-.16,.15-.36-.09-.28-.22-.52-.46-.7-.13-.09-.25-.2-.38-.28-.8-.49-1.6-.97-2.39-1.47-1.33-.84-2.66-1.68-3.98-2.53-1.15-.75-2.3-1.49-3.5-2.14-.75-.41-1.52-.8-2.33-1.08-.14-.05-.28-.09-.42-.02,0,.13,.11,.16,.19,.21,.65,.4,1.31,.79,1.96,1.18,2.83,1.69,5.56,3.54,8.28,5.41,.11,.08,.21,.16,.32,.24-.04,0-.09,0-.13,0,0,.02,0,.04-.01,.06,.08,.03,.16,.06,.24,.1,.08,.06,.15,.14,.24,.19,.17,.1,.37,.17,.53,.3,.21,.17,.46,.27,.68,.42,.33,.23,.69,.42,1.04,.62,.06,.28,.13,.56,.19,.85,.02,.08,.03,.15,.05,.27-.1-.01-.18,0-.24-.04-.31-.15-.63-.29-.93-.46-.14-.08-.27-.22-.36-.36-.17-.28-.38-.52-.64-.72-.14-.11-.29-.22-.44-.31-2.32-1.48-4.64-2.97-6.97-4.44-1.55-.98-3.14-1.9-4.8-2.67-1.06-.49-2.14-.91-3.29-1.15-1-.21-2.01-.25-3.02-.04-.32,.07-.66,.04-.99,.05-.75,.03-1.5,.11-2.24,.25-.05,.01-.11,.01-.19,.02,.14-.18,.28-.3,.48-.35,.17-.04,.34-.1,.51-.16,.31-.11,.62-.23,.93-.34,.06-.02,.13-.04,.18-.11-.3,.1-.61,.18-.91,.3-.19,.07-.36,.13-.57,.11,.09-.16,.24-.2,.41-.23,.37-.07,.74-.17,1.12-.26,.12,0,.24,.01,.35,.02Zm2.11-.28c.08,.06,.15,.08,.26-.02-.11,0-.19,.01-.26,.02Zm-.5,.05s0-.03,0-.05h-.22s0,.02,0,.03c.07,0,.15,0,.22,.01Zm16.79,8.18l.02-.06s-.07-.02-.11-.03c0,.01-.01,.04,0,.04,.03,.02,.06,.03,.09,.05ZM26.57,1.25s0,.02,0,.03c.04,0,.09,.02,.13,.03,0-.01,0-.03,0-.04-.04,0-.09,0-.13-.01Z"/><path d="M13.11,10.1c-.02,.12-.04,.23-.05,.36-.12-.44-.05-4.43,.11-5.04-.04,1.09-.08,2.18-.12,3.27,.02,0,.04,0,.05,0,0-.23,.01-.45,.02-.68,.02-.52,.05-1.05,.08-1.57,.02-.42,.05-.85,.07-1.27,.02-.57,.07-1.13,.2-1.68,.05-.19,.08-.38,.13-.57,0,.17,0,.33,0,.5,0,.2-.03,.39-.04,.59,0,.08,.02,.15,.03,.23-.12,.12-.07,.26-.07,.4-.02,.13-.04,.26-.06,.4,.02,0,.03,0,.05,0,.02-.13,.05-.27,.01-.4,.1-.12,.07-.27,.06-.4,.09,.13,.07,.27,.06,.41-.03,.38-.08,.75-.12,1.12-.04,.44-.08,.88-.12,1.31-.02,.26-.05,.51-.07,.77,0,.17-.02,.34-.03,.5,.02,0,.03,0,.05,0,0-.17-.02-.34-.02-.51,.02-.05,.06-.09,.06-.14,.05-.53,.1-1.06,.16-1.6,.02-.15,.04-.31,.08-.46,0,.03,.01,.06,.01,.09,0,1.49,0,2.97-.01,4.46,0,.94-.01,1.89-.02,2.83,0,1.41-.02,2.82-.02,4.23,0,2.1,0,4.2,.02,6.3,0,.8,.02,1.6,.03,2.41,.02,1.08,.04,2.17,.07,3.25,.02,.65,.15,1.29,.35,1.92,.09,.28,.19,.55,.29,.82,.06,.17,.07,.33,0,.5-.05,.13-.05,.28-.07,.42-.01,.1-.03,.2-.04,.29-.15,.01-.19-.09-.23-.17-.18-.37-.36-.75-.53-1.13-.09-.21-.16-.44-.24-.66h0c-.06-.28-.11-.57-.17-.86-.04-.23-.08-.47-.12-.7,0,0,0,.01,0,.01,0-.16-.02-.33-.03-.5-.02,.03-.03,.05-.05,.07v-1.4s-.02,0-.03,0v.54h-.03v-9.94s.02,0,.02,0c0,.14,.01,.28,.02,.42,.02-.37,.02-.74,.02-1.11,0-.05,0-.09-.02-.14-.02-.11-.06-.21-.06-.32,0-1.03,0-2.06,0-3.09h0s.08-.07,.09-.12c.03-.23,.04-.47,.06-.7,0-.05,0-.09,.04-.14l.02,.29c-.01-.25,.06-.5-.06-.74,0,0,0-.02,0-.02,.02-.22,.04-.45,.08-.67v.29s.02,0,.04,0c0-.11,0-.22,0-.33-.01-.11-.04-.23-.06-.34,0-.02,0-.03,0-.05,.02-.21,.04-.41,.08-.62v.34h.04c0-.16,.04-.33,0-.48-.06-.17-.08-.32-.02-.49,.03-.1,0-.23-.01-.35,.02,.07,.05,.14,.06,.21,.01,.07,0,.15,0,.22,0-.19,.07-.39-.03-.63-.01,.09-.02,.15-.03,.2Zm-.05-1.13s-.02,0-.03,0v.99s.02,0,.03,0v-1Zm-.11,6.81s0,0-.01,0v.73s0,0,.01,0v-.73Zm.04-.95v-.57s-.02,0-.03,0c.01,.21,.02,.42,.03,.57Zm.19-5.78c.02,.25,.03,.46,.04,.66,.02-.21,.06-.42-.04-.66Zm.11-.42s-.01,0-.02,0v.38s.01,0,.02,0v-.38Zm-.38,8.56s0,0,0,0v.09s0,0,0,0v-.09Zm.25-7.75h-.02v.14s.01,0,.02,0v-.14Zm.03-.67s.02,0,.02,0c0-.04,0-.09,0-.13,0,0-.01,0-.02,0v.13Zm.28-3.33s-.04,.05-.04,.06c0,.02,.02,.04,.03,.06,0-.03,0-.06,0-.12Z"/><path d="M6.53,44.33c.06,.06,.12,.12,.19,.17,.35,.24,.71,.46,1.06,.7,.13,.09,.29,.13,.34,.32,.01,.06,.12,.09,.18,.13,.22,.14,.44,.27,.66,.41,.33,.21,.65,.43,.98,.64,.5,.31,1.01,.61,1.51,.91,.22,.13,.44,.27,.66,.4,.07,.04,.14,.08,.12,.18,.06,.04,.12,.08,.17,.13,.06,.02,.12,.04,.18,.06,.05,.1,.12,.15,.24,.11,.2,.04,.22,.06,.23,.22,.03,.02,.06,.04,.09,.07,.05,.03,.11,.07,.16,.1,.05,.02,.1,.03,.15,.05l.23,.15c.08,.04,.16,.09,.24,.13,.08,.04,.15,.08,.23,.12,.02,0,.05,0,.07-.01v.02s.02,0,.02,0c.02,.01,.05,.03,.07,.04,0,.03,0,.05,0,.08,.02,0,.03,0,.05,.01,.02,0,.03,0,.05,0,.01,.01,.02,.03,.04,.04l.06-.03s.03,.01,.05,.02c0,.02-.01,.05-.02,.07,0,0,0,0,0,0,.03,.08,.07,.13,.16,.07,0,0-.01,0-.01,0,.02,0,.05,0,.07,0,.01,0,.03,0,.04,0,0,0,.02,0,.03,.01,.02,.04,.05,.09,.07,.13,.05,.02,.1,.04,.15,.06,.03,0,.05,0,.08,0q.01,.15,.17,.16s-.02-.08-.03-.11c.03,.05,.07,.09,.1,.14,.03,.13,.15,.21,.25,.16,0,0,0-.04,0-.07,.03,.03,.06,.06,.09,.1,0,.03,0,.08,.02,.09,.07,.05,.16,.09,.23,.13,0,0,0,0,0,0,.07,.05,.13,.1,.21,.13,.04,.02,.11,0,.16-.02h0c.04,.18,.19,.23,.33,.28,.02,0,.05-.03,.07-.04,0,.01,.02,.01,.03,0,0,0,0,0,0,0,.02,.05,.03,.12,.07,.15,.11,.07,.24,.13,.36,.19,.38,.21,.75,.43,1.13,.62,1.56,.8,3.13,1.59,4.75,2.26,.41,.17,.83,.3,1.24,.46,.06,.02,.12,.04,.17,.09-.06,0-.13-.02-.19-.03-1.18-.24-2.3-.64-3.41-1.1-1.96-.81-3.84-1.79-5.68-2.85-1.85-1.07-3.68-2.18-5.52-3.28-.6-.35-1.2-.7-1.79-1.05-1.39-.83-2.65-1.83-3.8-2.98-.55-.55-.96-1.21-1.36-1.86-.15-.24-.29-.48-.43-.73,.01-.01,.03-.02,.04-.03,.05,.06,.11,.11,.16,.17,.21,.25,.43,.51,.64,.75,.05,.05,.08,.16,.2,.1,.02-.01,.09,.05,.13,.09,.18,.16,.35,.32,.53,.47,.04,.04,.1,.07,.16,.08-.24-.62-.62-1.16-.87-1.77,.28,.35,.55,.7,.85,1.04,.29,.34,.6,.67,.92,.99,.32,.32,.63,.65,.95,1.01-.14,.05-.23,0-.31-.05-.38-.23-.76-.47-1.14-.71-.07-.04-.14-.09-.21-.13,.07,.15,.17,.27,.31,.32,.22,.07,.37,.21,.52,.37,.01,.05,0,.12,.04,.15,.19,.16,.38,.31,.59,.45,.06,.04,.12,.12,.22,.06,.18,.1,.35,.2,.53,.3Zm.91,.71s-.03,.03-.05,.04c.03,.02,.06,.03,.09,.05-.02-.03-.03-.06-.05-.09Zm-.74-.41s.01-.02,.02-.03c-.03-.02-.06-.04-.09-.05,0,0,0,.01-.01,.02,.03,.02,.06,.05,.09,.07Z"/><path d="M6.53,44.33c-.18-.1-.35-.2-.53-.3-.03-.05-.06-.11-.08-.16,.12,.07,.24,.14,.37,.21,1.19,.68,2.32,1.45,3.47,2.2,1.22,.8,2.47,1.54,3.78,2.19,.16,.08,.16,.08,.32,.07-.01-.12-.11-.17-.18-.23-1.01-.72-2-1.45-3.03-2.14-.91-.61-1.86-1.15-2.79-1.73-.34-.21-.67-.43-1.01-.65,0-.02,.02-.03,.03-.05,.06,.03,.12,.05,.17,.08,1.81,1.07,3.62,2.14,5.43,3.21,1.55,.91,3.1,1.8,4.65,2.72,.64,.38,1.26,.81,1.88,1.22,.14,.09,.26,.21,.38,.31,.06,.05,.1,.11,.15,.17-.08,.1-.16,.07-.23,.05-.19-.05-.38-.1-.57-.16-1-.36-1.96-.83-2.9-1.32-2.42-1.27-4.74-2.72-7.01-4.24-.69-.46-1.4-.91-2.1-1.37-.06-.04-.12-.07-.19-.1Z"/><path d="M7.5,46.19s.07,.03,.1,.05c1.41,1.03,2.93,1.9,4.43,2.8,2.03,1.21,4.08,2.38,6.19,3.43,1.49,.74,3.01,1.41,4.6,1.9,1.36,.42,2.75,.68,4.19,.54,.54-.05,1.08-.14,1.61-.22,.07,0,.13-.02,.21,0-.35,.19-.66,.45-1.08,.49-1.74,.17-3.44-.03-5.11-.55-1.57-.49-3.07-1.14-4.54-1.85-2.79-1.34-5.41-2.96-7.97-4.69-.82-.56-1.63-1.13-2.44-1.7-.08-.05-.14-.12-.21-.18,0,0,.02-.02,.02-.02Z"/><path d="M13.25,31.22c-.03,.09-.04,.19,.02,.28-.11,.11,0,.21,.03,.3,.18,.46,.37,.92,.56,1.37,.03,.08,.07,.15,.08,.25-.03-.04-.06-.09-.09-.13-.67-1.31-1.1-2.69-1.12-4.18-.02-1.34-.06-2.68-.07-4.01-.03-2.73-.05-5.46-.08-8.19,0-.37-.01-.74-.04-1.11-.13,1.05-.17,2.11-.25,3.17,0-.04-.01-.09-.01-.13,0-.05,0-.11,0-.17,.03-1.48,.06-2.96,.09-4.44,.01-.52,0-1.05,.03-1.57,.03-.64,.08-1.29,.13-1.93,.05-.61,.11-1.22,.17-1.83,.04-.41,.1-.82,.19-1.22-.05,.87-.09,1.74-.14,2.61,.01,0,.02,0,.03,0,.02-.09,.05-.17,.07-.26h.03c-.02,1.4-.04,2.79-.06,4.19,0,0,0,0,0,0,0,.09-.03,.19-.03,.28-.02,1.09-.04,2.17-.05,3.26-.01,2.09-.01,4.17-.02,6.26,0,.54,0,1.08,0,1.63,.02,0,.03,0,.05,0v-3.13s.04,.09,.04,.14c-.01,1.23-.03,2.47-.03,3.7,0,1.14-.04,2.28,.05,3.42,0,0,.01,.02,.02,.02,.02-.06,.03-.12,.05-.19,.03,.04,.05,.05,.06,.07,0,0,0-.01,0-.01,0,.09-.02,.19,0,.28,.04,.27,.08,.54,.14,.8,.04,.17,.03,.35,.16,.49h0Z"/><path d="M14.88,34.91s-.01-.02-.02-.03c.02-.13-.05-.21-.18-.24v-.02s-.02-.06-.02-.09c-.07-.11-.14-.22-.21-.34-.02,0-.03,0-.05,0,.07-.14-.05-.2-.11-.28h0c-.03-.09-.05-.2-.17-.23,0-.02,0-.03,0-.04-.08-.17-.16-.34-.24-.5h0c.12-.02,.12,.09,.15,.15,.3,.55,.63,1.07,1.02,1.56,.13,.17,.27,.32,.42,.48,.04,.04,.09,.07,.17,.12,.02-.22-.06-.38-.12-.55-.07-.18-.17-.36-.22-.55-.08-.27-.13-.54-.15-.83,.03,.03,.06,.07,.08,.1,.71,1.07,1.57,2.03,2.51,2.9,.48,.44,.97,.88,1.45,1.31,.06,.05,.13,.1,.09,.2-.04,.1-.13,.12-.22,.1-.16-.04-.32-.09-.47-.15-.73-.34-1.39-.81-1.98-1.35-.45-.42-.86-.87-1.29-1.31,0,0,0,.01,0,.01l-.17-.22h0c-.08-.08-.1-.23-.26-.21Z"/><path d="M39.04,36.04c.16,.02,.33,.02,.49,.05,.95,.16,1.86,.48,2.72,.9,.76,.37,1.5,.76,2.18,1.26,.3,.22,.4,.54,.51,.85,.04,.11-.03,.19-.15,.18-.1-.01-.2-.04-.29-.09-.25-.14-.51-.28-.75-.45-.94-.63-1.89-1.24-2.92-1.74-.51-.25-1.03-.47-1.54-.71-.1-.05-.19-.12-.29-.18,0-.03,.02-.05,.03-.08Z"/><path d="M25.8,2.3c.76,.02,1.49,.17,2.21,.4,1.36,.43,2.63,1.04,3.88,1.72,1.58,.85,3.11,1.8,4.62,2.76,1.71,1.08,3.41,2.17,5.11,3.27,.45,.29,.87,.65,1.3,.97-.01,.02-.02,.04-.03,.06-.1-.06-.2-.11-.29-.17-2.4-1.43-4.72-3-7.05-4.54-1.29-.85-2.61-1.67-3.98-2.4-1.56-.82-3.18-1.51-4.92-1.89-.28-.06-.56-.12-.85-.18Z"/><path d="M31.22,16.59c-.08-.04-.15-.07-.23-.12-.45-.28-.9-.57-1.36-.84-.27-.15-.58-.18-.89-.17-.16,0-.2,.11-.11,.24,.05,.07,.1,.14,.17,.19,.57,.49,1.14,.98,1.71,1.47,.08,.07,.16,.13,.24,.19-.12-.07-.24-.15-.36-.21-.07-.03-.16-.04-.24-.06-.36-.22-.73-.45-1.09-.67-.04-.03-.08-.08-.11-.12,.01-.02,.03-.03,.04-.05h.16c-.08-.07-.14-.13-.2-.18-.44-.38-.95-.67-1.47-.94-.14-.07-.27-.16-.39-.26-.14-.12-.16-.26-.08-.4,.07-.12,.17-.18,.34-.13,.34,.1,.68,.2,1.01,.33,1,.41,1.91,.98,2.78,1.63,.03,.02,.05,.05,.08,.08Z"/><path d="M47.06,14.32c.18-.3,.43-.5,.78-.57,.38-.08,.75-.18,1.12-.29,.27-.08,.51-.07,.72,.14,.05,.05,.11,.08,.19,.13-.11,.09-.2,.17-.3,.24-.27,.21-.54,.41-.8,.62-.08,.07-.16,.11-.28,.06-.41-.19-.85-.27-1.3-.28-.03,0-.06,0-.09-.02,0,0,0-.01-.03-.03Z"/><path d="M45.73,12.16c.27,.31,.45,.66,.51,1.07,0,.05,.03,.1,.06,.17,.07-.02,.14-.04,.2-.06,.15-.06,.3-.06,.46,.01,.11,.05,.22,.12,.38,.07-.02-.07-.04-.12-.07-.18-.04-.08-.08-.15-.12-.23-.09-.23-.04-.31,.17-.43,.27-.16,.52-.17,.79,0,.12,.08,.26,.14,.39,.21l-.02,.05s-.08-.02-.12-.04c-.13-.06-.26-.05-.39,.02-.06,.03-.13,.06-.19,.1-.17,.09-.19,.13-.17,.32,.04,.35-.11,.47-.46,.36-.1-.03-.19-.08-.28-.12-.2-.07-.31-.03-.4,.16-.03,.06-.06,.13-.07,.2-.03,.3-.21,.52-.38,.75-.26,.34-.59,.6-.91,.87-.01-.01-.02-.02-.03-.03,.07-.07,.15-.14,.22-.21,.34-.31,.63-.66,.88-1.04,.11-.17,.14-.42,.07-.67-.38,.17-.75,.36-1.17,.41-.03-.07-.05-.12-.07-.18-.1,.04-.2,.07-.29,.11,0,0-.01,0-.03-.02,.06-.15,.14-.28,.32-.33,.1-.02,.19-.07,.29-.11,.03,.04,.06,.11,.11,.13,.05,.02,.13,0,.18-.02,.11-.06,.22-.12,.31-.2,.09-.08,.12-.18,.03-.29-.02-.03-.05-.07-.05-.11-.03-.34-.21-.62-.38-.91,0-.02,0-.04,0-.07,.08,.08,.15,.17,.23,.25Z"/><path d="M47.28,42.5c.14-.17,.29-.27,.46-.32,.35-.1,.69-.2,1.05-.28,.7-.14,.54-.15,1.07,.29,.04,.04,.09,.07,.15,.11-.07,.05-.11,.09-.16,.11-.3,.18-.61,.36-.91,.54-.08,.05-.15,.08-.24,.02-.39-.25-.83-.36-1.29-.45-.03,0-.06-.02-.13-.04Z"/><path d="M44.3,44.22c.15-.07,.29-.15,.44-.22,.12-.06,.25-.12,.37-.18,.01,.01,.02,.02,.03,.03-.06,.11-.12,.21-.17,.32-.35,.67-.83,1.21-1.38,1.72-.96,.88-2.06,1.54-3.18,2.18-.02,.01-.04,.02-.08,0,.06-.05,.12-.11,.18-.16,.93-.75,1.87-1.49,2.8-2.24,.44-.35,.83-.75,1.13-1.23,.04-.06,.07-.12,.11-.18,0-.01,0-.03,0-.06-.1,.04-.2,.07-.3,.11,.02-.03,.03-.06,.05-.1Z"/><path d="M46.47,42.98c.12-.12,.2-.2,.28-.29,.08-.1,.23-.19,.16-.34-.06-.13-.22-.1-.34-.11-.16,0-.32,0-.4-.18-.05-.1-.06-.19,.01-.29,.07-.09,.15-.13,.27-.09,.21,.07,.42,.14,.63,.21,.13,.04,.27,.08,.41,.09,.17,.01,.33-.05,.39-.23,.01-.03,.04-.08,.07-.09,.25-.1,.49-.23,.74-.28,.2-.04,.37,.12,.52,.26-.17,.04-.33,.06-.48,.11-.33,.1-.66,.21-.99,.31-.32,.1-.53,.35-.78,.61,.09,.02,.16,.04,.22,.05,.37,.06,.72,.17,1.05,.35,.07,.04,.14,.09,.23,.15-.08,.05-.13,.09-.18,.12-.12,.08-.22,.08-.34,0-.36-.23-.76-.33-1.19-.36-.07,0-.14,0-.28-.02Z"/><path d="M44.63,45.53c.34-.55,.63-1.06,.96-1.54,.45-.66,1.39-.79,1.99-.29-.15,.22-.37,.31-.61,.24-.4-.12-.73,0-.98,.33-.1,.14-.19,.29-.27,.44-.07,.15-.17,.26-.31,.35-.25,.15-.49,.3-.79,.47Z"/><path d="M45.07,17.25c.24-.35,.46-.68,.69-1.01,.15-.22,.31-.43,.54-.59,.27-.19,.57-.26,.9-.19,.08,.02,.16,.06,.24,.09-.14,.19-2.02,1.54-2.36,1.71Z"/><path d="M44.99,39.99c.31,.3,.67,.54,.91,.91,.04,.06,.1,.12,.17,.16,.25,.12,.5,.24,.75,.35,.07,.03,.14,.04,.27,.07-.05-.15-.08-.25-.11-.35-.08-.24-.06-.28,.19-.35,.12-.04,.24-.07,.36-.12,.14-.07,.27-.05,.4,.03,.17,.1,.37,.17,.49,.35-.2-.11-.38-.06-.56,.03-.11,.05-.23,.09-.35,.14-.09,.03-.12,.1-.09,.19,.03,.09,.08,.17,.1,.26,.02,.06,0,.13,0,.2-.07,0-.14,.01-.2,0-.07-.02-.14-.06-.21-.1-.21-.1-.42-.21-.63-.31-.07-.03-.15-.09-.22-.08-.21,.01-.31-.11-.4-.27-.17-.28-.39-.53-.63-.76-.1-.09-.18-.19-.27-.28,.01-.01,.03-.02,.04-.03Z"/><path d="M17.47,38.78c-.09-.06-.17-.11-.24-.16-1.43-1.05-2.68-2.29-3.59-3.83-.74-1.26-1.22-2.62-1.37-4.08,0-.05,0-.09,0-.14,0-.05,0-.11,0-.17,.1,.49,.19,.98,.3,1.47,.39,1.64,1.21,3.06,2.26,4.36,.73,.9,1.57,1.7,2.49,2.4,.04,.03,.09,.07,.13,.1,0,0,0,.02,.02,.06Z"/><path d="M44.32,39.54s.07,.03,.09,.05c.3,.32,.6,.64,.89,.98,.09,.11,.15,.26,.22,.39,.11,.19,.2,.39,.32,.58,.15,.23,.14,.36-.1,.5-.2,.12-.41,.18-.65,.15-.12-.02-.25,0-.37,.02,0-.21,.3-.13,.28-.32,.13,.03,.25,.08,.37,.08,.14,0,.2-.07,.16-.2-.15-.43-.13-.91-.46-1.27-.24-.26-.46-.54-.68-.81-.03-.03-.05-.07-.08-.1,0,0,.01-.02,.02-.03Z"/><path d="M44.93,43.69s.06-.03,.1-.04c.22-.15,.45-.29,.66-.46,.1-.08,.19-.19,.24-.31,.11-.26-.06-.46-.33-.42-.17,.02-.34,.06-.51,.09-.16,.03-.32,.07-.49,.01-.09-.03-.21,.02-.34,.04,.02-.15,.12-.21,.23-.24,.11-.02,.22-.04,.33-.02,.32,.07,.62,0,.92-.12,.2-.07,.23-.07,.32,.14,.04,.1,.07,.21,.12,.31,.08,.14,.04,.24-.06,.34-.06,.06-.12,.13-.19,.18-.32,.2-.65,.4-.97,.59-.03-.03-.04-.03-.04-.03,0,0,0-.01,0-.02,0-.01,0-.03,0-.05Z"/><path d="M45.73,12.16c-.08-.08-.15-.17-.23-.25-.07-.08-.14-.16-.2-.24,0,0,0,0,0,0,.05,.04,.09,.08,.14,.11,.05-.01,.11-.04,.15-.03,.42,.11,.78,.29,.94,.73,.05,.14,.11,.27,.16,.41,.03,.09,.02,.18-.07,.22-.1,.05-.19,.01-.24-.08-.05-.09-.1-.18-.14-.27-.12-.24-.27-.45-.5-.61Z"/><path d="M.98,12.03s.02,.08,.01,.12c-.01,.17-.03,.34-.05,.52-.02,.16-.06,.32,.05,.47,.03,.04,.02,.12,.02,.18-.03,.71-.06,1.41-.09,2.12,0,.24,0,.49-.01,.73,0,.07,0,.14-.04,.21,.01-.86,.02-1.71,.04-2.57-.02,0-.04,0-.06-.01-.06,.17-.11,.34-.17,.51-.01,0-.02,0-.03,0,.02-.16,.03-.32,.05-.48,.04-.41,.08-.81,.13-1.22,.02-.2,.07-.39,.11-.59,.02,0,.03,0,.05,0Z"/><path d="M44.67,11.32c.07,.02,.14,.05,.21,.07,.07,.05,.14,.1,.21,.15,.05,.1,.1,.21,.15,.31,.07,.14,.14,.28,.2,.42,.02,.05,.06,.09,.07,.15,.03,.13-.04,.22-.18,.19-.13-.03-.25-.08-.36-.12,0-.08,.03-.15,.02-.2-.06-.25-.13-.5-.21-.75-.02-.08-.08-.15-.11-.23Z"/><path d="M47.5,12.11c-.48-.13-1.53-.84-1.89-1.29,.63,.43,1.26,.86,1.89,1.29Z"/><path d="M45.4,38.76c.23,.07,1.83,1.23,2.02,1.46-.38-.19-1.71-1.15-2.02-1.46Z"/><path d="M2.06,41.57c-.47-.5-.94-.99-1.24-1.62,.43,.53,.85,1.06,1.28,1.59-.01,.01-.03,.02-.04,.04Z"/><path d="M21.91,15.76s0,0,0,0c-.19,.06-.38,.13-.58,.19-.12,.04-.24,.07-.35,.13-.15,.08-.29,.11-.46,.04,.06-.12,.15-.18,.28-.2,.29-.04,.58-.1,.88-.14,.07-.01,.15,0,.23,0Z"/><path d="M23.03,1.39c-.12,0-.24-.01-.35-.02-.2,.03-.4,.06-.6,.09-.13,.02-.27,.02-.46,.03,.11-.13,.19-.2,.29-.17,.23,.05,.45-.02,.68-.02,.11,0,.22,0,.33,0,.04,0,.08,.06,.12,.09Z"/><path d="M45.4,13.27c.04-.2,.25-.32,.05-.51,.1,0,.15,0,.2,.02,.11,.04,.14,.13,.06,.22-.08,.09-.18,.16-.31,.28Z"/><path d="M12.91,12.36v1.04h-.01v-1.04h.01Z"/><path d="M12.94,11.5v-.86s0,0,.01,0v.86s0,0-.01,0Z"/><path d="M7.48,46.21c-.17-.12-.33-.23-.5-.35,.01-.02,.02-.03,.04-.05,.16,.13,.32,.25,.48,.38,0,0-.02,.02-.02,.02Z"/><path d="M28.65,16.31c-.11-.06-.21-.12-.32-.18,.04,0,.09-.02,.11,0,.07,.06,.2,.05,.2,.19Z"/><path d="M44.09,39.43c-.07-.09-.14-.17-.21-.26,.17,0,.22,.15,.37,.26h-.16Z"/><path d="M45.41,40.13c.11,.08,.21,.16,.32,.24-.01,.01-.02,.03-.03,.04-.1-.08-.21-.16-.31-.24,.01-.02,.02-.03,.03-.05Z"/><path d="M14.46,34.2c.07,.11,.14,.22,.21,.34-.06-.03-.13-.07-.19-.1h0c.02-.08-.11-.14-.03-.23Z"/><path d="M12.4,48.32c-.06-.04-.12-.09-.17-.13,0-.02,0-.05,.02-.05,.11-.01,.15,.04,.16,.17,0,0,0,0,0,0Z"/><path d="M12.82,48.49c-.11,.04-.19,0-.24-.11,0-.01,0-.02,0-.04,.11,0,.18,.04,.23,.14Z"/><path d="M14.15,49.33c-.08-.04-.15-.08-.23-.12,0,0,0,0,0,0,.18-.03,.21-.02,.23,.12Z"/><path d="M13.68,49.08c-.08-.05-.16-.1-.23-.15,0,0,0,0,0,0,.19-.03,.21-.02,.23,.14h0Z"/><path d="M13.68,49.08h0c.19-.04,.22-.03,.24,.13,0,0,0,0,0,0-.08-.04-.16-.09-.24-.13Z"/><path d="M15.56,35.76c-.1-.05-.19-.11-.22-.23,.14,.01,.19,.11,.22,.23Z"/><path d="M13.44,48.93s0,0,0,0c-.05-.02-.1-.03-.15-.05,0-.03,.02-.06,.02-.1,.03,0,.07,0,.08,.02,.02,.03,.03,.08,.04,.12Z"/><path d="M13.89,33.14c-.05-.13-.11-.26-.17-.42,.17,.23,.18,.27,.17,.43,0,0,0,0,0,0Z"/><path d="M14.13,33.64s0,.02,0,.04c.02,.06,.05,.13,.07,.19,0,0,0,0,0,0l-.2-.27s.02-.02,.03-.03c.03,.02,.06,.05,.1,.07Z"/><path d="M13.14,48.78s-.06-.04-.09-.07c.01-.06,.05-.1,.11-.05,.07,.05,.03,.09-.02,.12Z"/><path d="M15.03,49.84s-.1-.04-.15-.06c0-.03,0-.06-.01-.08,.01,0,.02,0,.03,0,.07,.03,.17,.03,.13,.15Z"/><path d="M42.82,39.66l-.2-.18s.02-.02,.03-.03c.07,.06,.13,.12,.2,.18,0,0-.02,.02-.02,.03Z"/><path d="M17.02,50.93c-.12,.01-.19-.08-.28-.14,0,0,0,0,0,0,.12-.02,.23,0,.27,.13Z"/><path d="M16.31,50.55s-.07-.04-.1-.05c.12,.01,.24,0,.29,.15-.06-.03-.13-.06-.19-.09,0,0,0,0,0,0Z"/><path d="M28.99,16.46s-.03,.03-.04,.05c-.05-.04-.1-.07-.15-.11,0,0,0-.01,0-.01,.09-.04,.14,0,.19,.07Z"/><path d="M12.59,48.35s0,.02,0,.04c-.06-.02-.12-.04-.18-.06,0,0,0,0,0,0,.08-.11,.13-.05,.18,.03Z"/><path d="M17.46,51.11s.1,.05,.16,.08c-.03,.03-.05,.05-.06,.05-.05-.02-.09-.05-.14-.08,.01-.02,.02-.03,.03-.05Z"/><path d="M16.07,50.41s-.09,.02-.13,.03c0,0,0,0,0,0-.01-.06-.02-.12-.04-.18,.06,.05,.12,.1,.17,.14Z"/><path d="M28.8,16.38s0,.01,0,.01c-.04-.02-.09-.05-.13-.07,.09-.08,.12-.02,.14,.06Z"/><path d="M12.24,30.12v-.16s0,0,0,0c0,.05,0,.11,0,.16,0,0,0,0-.01,0Z"/><path d="M15.32,35.34s0-.01,0-.01c0,.05,0,.1,0,.15-.03-.03-.07-.06-.1-.09,0-.05-.02-.09-.03-.14,.05,.03,.09,.06,.14,.09Z"/><path d="M44.16,44.3s.07,0,.1,0c-.08,.06-.16,.11-.24,.17,0-.04-.01-.08-.02-.12,.08,.05,.12-.02,.16-.06Z"/><path d="M14.29,33.92c.03,.07,.05,.13,.08,.2-.12-.04-.15-.13-.17-.24,0,0,0,0,0,0,.03,.02,.07,.03,.1,.05h0Z"/><path d="M42.51,39.39s-.08-.07-.12-.1l.02-.03s.09,.06,.13,.09c0,.01-.02,.02-.03,.04Z"/><path d="M31.43,16.73c-.07-.05-.15-.1-.22-.15,.07,.05,.15,.1,.22,.15Z"/><path d="M4.69,44.01l-.1-.09s0-.01,.01-.02c.04,.03,.07,.06,.11,.08l-.02,.02Z"/><path d="M44.88,15.64s-.06,.05-.08,.07c0,0-.01-.01-.02-.02,.03-.03,.05-.06,.08-.08,0,.01,.02,.02,.02,.03Z"/><path d="M14.57,49.5c.09,.01,.15,.06,.17,.15-.02,0-.05,0-.07,0,0,0,.01,0,.01,0-.03-.03-.07-.06-.1-.1,0-.02,0-.03,0-.05Z"/><path d="M14.43,49.51s-.02-.03-.04-.04c.05-.07,.08-.03,.1,.02-.02,0-.04,.01-.07,.02Z"/><path d="M14.3,49.45s.03-.04,.04-.06c0,.02,0,.05,0,.07-.02,0-.03,0-.05-.01Z"/><path d="M14.69,34.65c.13,.02,.19,.1,.18,.24-.11-.04-.17-.11-.18-.24Z"/><path d="M14.96,35.05c.06,.02,.13,.05,.19,.07,0,0,0,0,0,0,.01,.05,.03,.09,.04,.14-.05-.03-.09-.05-.14-.08-.03-.04-.06-.08-.09-.13Z"/><path d="M14.59,49.55s-.04,.02-.06,.02c0,0,0,0,0,0,.02,0,.04-.02,.06-.03Z"/></g></g></svg>